<?xml version="1.0" encoding="UTF-8"?>
<svg xmlns="http://www.w3.org/2000/svg" viewBox="0 0 100 100">
  <defs>
    <style>
      .cls-1 {
        fill: #1f232f;
      }

      .cls-2 {
        fill: #45b0d2;
      }

      .cls-3 {
        opacity: .5;
      }
    </style>
  </defs>
  <g id="Capa_1" data-name="Capa 1">
    <rect class="cls-1" width="100" height="100" rx="16" ry="16"/>
  </g>
  <g id="Capa_3" data-name="Capa 3">
    <g>
      <path class="cls-2" d="m26.66,73.9c-2.59,0-5.29-.58-8.1-1.73-2.32-.95-4.39-2.5-6.21-4.64-.66-.77-.62-1.92.07-2.66l3.48-3.72c.77-.83,2.07-.8,2.86,0,2.35,2.4,4.86,3.6,7.54,3.6,2.4,0,4.21-.62,5.44-1.87,1.22-1.25,1.84-3.48,1.84-6.7v-19.24c0-1.1-.9-2-2-2h-14.36c-1.1,0-2-.9-2-2v-4.86c0-1.1.9-2,2-2h24.94c1.1,0,2,.9,2,2v28.96c0,3.07-.55,5.88-1.66,8.42-1.1,2.54-2.94,4.58-5.51,6.12-2.57,1.54-6.01,2.3-10.33,2.3Z"/>
      <path class="cls-2" d="m53.13,71.04V28.1c0-1.1.9-2,2-2h14.63c3.41,0,6.49.47,9.25,1.4,2.76.94,4.97,2.51,6.62,4.72,1.66,2.21,2.48,5.21,2.48,9s-.84,6.65-2.52,9c-1.68,2.35-3.91,4.09-6.7,5.22-2.78,1.13-5.83,1.69-9.14,1.69h-4.05c-1.1,0-2,.9-2,2v11.91c0,1.1-.9,2-2,2h-6.58c-1.1,0-2-.9-2-2Zm10.58-24.34c0,1.1.9,2,2,2h3.4c5.76,0,8.64-2.5,8.64-7.49,0-2.45-.73-4.18-2.2-5.18-1.46-1.01-3.61-1.51-6.44-1.51h-3.4c-1.1,0-2,.9-2,2v10.18Z"/>
    </g>
  </g>
  <g id="Capa_2" data-name="Capa 2">
    <rect class="cls-3" x="0" y="0" width="100" height="100" rx="16" ry="16"/>
  </g>
</svg>